<?xml version="1.0" encoding="utf-8"?>
<!-- Generator: Adobe Illustrator 27.3.1, SVG Export Plug-In . SVG Version: 6.00 Build 0)  -->
<svg version="1.1" id="Layer_1" xmlns="http://www.w3.org/2000/svg" xmlns:xlink="http://www.w3.org/1999/xlink" x="0px" y="0px"
	 viewBox="0 0 1440.2 1582.7" style="enable-background:new 0 0 1440.2 1582.7;" xml:space="preserve">
<style type="text/css">
	.st0{fill-rule:evenodd;clip-rule:evenodd;fill:#444445;}
</style>
<path id="Layer" class="st0" d="M1339.2,537.1c32.1,35.2,57.5,75.9,74.8,120.3c17.2,44.4,26.1,91.5,26.2,139.2
	c0.1,47.6-8.6,94.8-25.7,139.2s-42.3,85.3-74.3,120.6c-57.2,63.1-119,121.9-184.9,175.9s-135.7,103-208.9,146.7
	c-73.1,43.6-149.4,81.8-228.2,114.2c-78.8,32.4-159.9,59-242.6,79.4c-42.2,10.6-86.1,12.9-129.1,6.8c-43.1-6.1-84.6-20.4-122.2-42.3
	c-37.7-21.8-70.7-50.7-97.4-85c-26.6-34.4-46.4-73.6-58.2-115.4c-100.4-343-85.6-730.8,11.2-1075.3C130.9,80.5,301.2-33.1,476.6,8.7
	C801.4,86.1,1106.2,285.4,1339.2,537.1L1339.2,537.1L1339.2,537.1z M881.9,893.3c61.2-48.4,61.2-142.7,0-192.6
	c-21.7-18.1-44-35.4-66.8-52.1c-22.8-16.7-46.1-32.7-69.9-48c-23.7-15.3-47.9-29.8-72.6-43.7c-24.7-13.8-49.7-26.9-75.2-39.2
	C527.1,484.1,448.6,531,437.3,611c-17.3,122.3-20.4,245.6-9.1,362.8c7.6,81.1,85.1,129.5,156.5,98.4c26.6-11.5,52.8-23.8,78.6-37
	c25.8-13.2,51.1-27.3,76-42.2s49.2-30.7,73-47.2s47-33.9,69.6-52L881.9,893.3L881.9,893.3z"/>
</svg>
