<?xml version="1.0" encoding="utf-8"?>
<!-- Generator: Adobe Illustrator 27.3.1, SVG Export Plug-In . SVG Version: 6.00 Build 0)  -->
<svg version="1.1" id="Layer_1" xmlns="http://www.w3.org/2000/svg" xmlns:xlink="http://www.w3.org/1999/xlink" x="0px" y="0px"
	 viewBox="0 0 3000 2000" style="enable-background:new 0 0 3000 2000;" xml:space="preserve">
<style type="text/css">
	.st0{fill:#1B1464;}
</style>
<g>
	<g>
		<g>
			<rect x="99" y="-72.2" class="st0" width="2" height="2155.4"/>
		</g>
		<g>
			<rect x="-1" y="-72.2" class="st0" width="2" height="2155.4"/>
		</g>
		<g>
			<rect x="199" y="-72.2" class="st0" width="2" height="2155.4"/>
		</g>
		<g>
			<rect x="299" y="-72.2" class="st0" width="2" height="2155.4"/>
		</g>
		<g>
			<rect x="399" y="-72.2" class="st0" width="2" height="2155.4"/>
		</g>
		<g>
			<rect x="499" y="-72.2" class="st0" width="2" height="2155.4"/>
		</g>
		<g>
			<rect x="599" y="-72.2" class="st0" width="2" height="2155.4"/>
		</g>
		<g>
			<rect x="699" y="-72.2" class="st0" width="2" height="2155.4"/>
		</g>
		<g>
			<rect x="799" y="-72.2" class="st0" width="2" height="2155.4"/>
		</g>
		<g>
			<rect x="899" y="-72.2" class="st0" width="2" height="2155.4"/>
		</g>
		<g>
			<rect x="999" y="-72.2" class="st0" width="2" height="2155.4"/>
		</g>
		<g>
			<rect x="1099" y="-72.2" class="st0" width="2" height="2155.4"/>
		</g>
		<g>
			<rect x="1199" y="-72.2" class="st0" width="2" height="2155.4"/>
		</g>
		<g>
			<rect x="1299" y="-72.2" class="st0" width="2" height="2155.4"/>
		</g>
		<g>
			<rect x="1399" y="-72.2" class="st0" width="2" height="2155.4"/>
		</g>
		<g>
			<rect x="1499" y="-72.2" class="st0" width="2" height="2155.4"/>
		</g>
		<g>
			<rect x="1599" y="-72.2" class="st0" width="2" height="2155.4"/>
		</g>
		<g>
			<rect x="1699" y="-72.2" class="st0" width="2" height="2155.4"/>
		</g>
		<g>
			<rect x="1799" y="-72.2" class="st0" width="2" height="2155.4"/>
		</g>
		<g>
			<rect x="1899" y="-72.2" class="st0" width="2" height="2155.4"/>
		</g>
		<g>
			<rect x="1999" y="-72.2" class="st0" width="2" height="2155.4"/>
		</g>
		<g>
			<rect x="2099" y="-72.2" class="st0" width="2" height="2155.4"/>
		</g>
		<g>
			<rect x="2199" y="-72.2" class="st0" width="2" height="2155.4"/>
		</g>
		<g>
			<rect x="2299" y="-72.2" class="st0" width="2" height="2155.4"/>
		</g>
		<g>
			<rect x="2399" y="-72.2" class="st0" width="2" height="2155.4"/>
		</g>
		<g>
			<rect x="2499" y="-72.2" class="st0" width="2" height="2155.4"/>
		</g>
		<g>
			<rect x="2599" y="-72.2" class="st0" width="2" height="2155.4"/>
		</g>
		<g>
			<rect x="2699" y="-72.2" class="st0" width="2" height="2155.4"/>
		</g>
		<g>
			<rect x="2799" y="-72.2" class="st0" width="2" height="2155.4"/>
		</g>
		<g>
			<rect x="2899" y="-72.2" class="st0" width="2" height="2155.4"/>
		</g>
		<g>
			<rect x="2999" y="-72.2" class="st0" width="2" height="2155.4"/>
		</g>
		<g>
			<rect x="-70.8" y="99" class="st0" width="3190.2" height="2"/>
		</g>
		<g>
			<rect x="-70.8" y="-1" class="st0" width="3190.2" height="2"/>
		</g>
		<g>
			<rect x="-70.8" y="199" class="st0" width="3190.2" height="2"/>
		</g>
		<g>
			<rect x="-70.8" y="299" class="st0" width="3190.2" height="2"/>
		</g>
		<g>
			<rect x="-70.8" y="399" class="st0" width="3190.2" height="2"/>
		</g>
		<g>
			<rect x="-70.8" y="499" class="st0" width="3190.2" height="2"/>
		</g>
		<g>
			<rect x="-70.8" y="599" class="st0" width="3190.2" height="2"/>
		</g>
		<g>
			<rect x="-70.8" y="699" class="st0" width="3190.2" height="2"/>
		</g>
		<g>
			<rect x="-70.8" y="799" class="st0" width="3190.2" height="2"/>
		</g>
		<g>
			<rect x="-70.8" y="899" class="st0" width="3190.2" height="2"/>
		</g>
		<g>
			<rect x="-70.8" y="999" class="st0" width="3190.2" height="2"/>
		</g>
		<g>
			<rect x="-70.8" y="1099" class="st0" width="3190.2" height="2"/>
		</g>
		<g>
			<rect x="-70.8" y="1199" class="st0" width="3190.2" height="2"/>
		</g>
		<g>
			<rect x="-70.8" y="1299" class="st0" width="3190.2" height="2"/>
		</g>
		<g>
			<rect x="-70.8" y="1399" class="st0" width="3190.2" height="2"/>
		</g>
		<g>
			<rect x="-70.8" y="1499" class="st0" width="3190.2" height="2"/>
		</g>
		<g>
			<rect x="-70.8" y="1599" class="st0" width="3190.2" height="2"/>
		</g>
		<g>
			<rect x="-70.8" y="1699" class="st0" width="3190.2" height="2"/>
		</g>
		<g>
			<rect x="-70.8" y="1799" class="st0" width="3190.2" height="2"/>
		</g>
		<g>
			<rect x="-70.8" y="1899" class="st0" width="3190.2" height="2"/>
		</g>
		<g>
			<rect x="-70.8" y="1999" class="st0" width="3190.2" height="2"/>
		</g>
	</g>
</g>
</svg>
