<?xml version="1.0" encoding="UTF-8"?>
<svg id="Layer_1" data-name="Layer 1" xmlns="http://www.w3.org/2000/svg" viewBox="0 0 1440.17 1582.69">
  <defs>
    <style>
      .cls-1 {
        fill: #fff;
        fill-rule: evenodd;
      }
    </style>
  </defs>
  <path id="Layer" class="cls-1" d="m1339.17,537.06c32.1,35.2,57.5,75.9,74.8,120.3,17.2,44.4,26.1,91.5,26.2,139.2.1,47.6-8.6,94.8-25.7,139.2s-42.3,85.3-74.3,120.6c-57.2,63.1-119,121.9-184.9,175.9s-135.7,103-208.9,146.7c-73.1,43.6-149.4,81.8-228.2,114.2-78.8,32.4-159.9,59-242.6,79.4-42.2,10.6-86.1,12.9-129.1,6.8-43.1-6.1-84.6-20.4-122.2-42.3-37.7-21.8-70.7-50.7-97.4-85-26.6-34.4-46.4-73.6-58.2-115.4C-31.73,993.66-16.93,605.86,79.87,261.36,130.87,80.46,301.17-33.14,476.57,8.66c324.8,77.4,629.6,276.7,862.6,528.4h0Zm-457.3,356.2c61.2-48.4,61.2-142.7,0-192.6-21.73-18.07-44-35.43-66.8-52.1-22.8-16.73-46.1-32.73-69.9-48-23.73-15.27-47.93-29.83-72.6-43.7-24.67-13.8-49.73-26.87-75.2-39.2-70.3-33.6-148.8,13.3-160.1,93.3-17.3,122.3-20.4,245.6-9.1,362.8,7.6,81.1,85.1,129.5,156.5,98.4,26.6-11.47,52.8-23.8,78.6-37,25.8-13.2,51.13-27.27,76-42.2s49.2-30.67,73-47.2,47-33.87,69.6-52v-.5Z"/>
</svg>